<svg width="156" height="92" viewBox="0 0 156 92" fill="none" xmlns="http://www.w3.org/2000/svg">
<path d="M72 69C33.0243 84.0766 11.1128 83.3258 7.159 73.1045C3.20519 62.8832 31.596 42.3752 70.5717 27.2986C109.547 12.222 144.349 8.28599 148.302 18.5073C151.54 26.8781 138.197 39.4642 110 53" stroke="#D8BFA9" stroke-width="0.5" stroke-dasharray="7 7"/>
<path d="M142.5 4C142.5 4 142.885 8.43746 144.724 10.2761C146.563 12.1148 151 12.5 151 12.5C151 12.5 146.563 12.8852 144.724 14.7239C142.885 16.5625 142.5 21 142.5 21C142.5 21 142.115 16.5625 140.276 14.7239C138.437 12.8852 134 12.5 134 12.5C134 12.5 138.437 12.1148 140.276 10.2761C142.115 8.43746 142.5 4 142.5 4Z" fill="#D8BFA9"/>
<path d="M147 21C147 21 147.136 22.5662 147.785 23.2151C148.434 23.8641 150 24 150 24C150 24 148.434 24.1359 147.785 24.7849C147.136 25.4338 147 27 147 27C147 27 146.864 25.4338 146.215 24.7849C145.566 24.1359 144 24 144 24C144 24 145.566 23.8641 146.215 23.2151C146.864 22.5662 147 21 147 21Z" fill="#D8BFA9"/>
</svg>
