<svg width="12" height="24" viewBox="0 0 12 24" fill="none" xmlns="http://www.w3.org/2000/svg">
<path d="M2.95344 4.92756C2.95344 5.4966 2.95344 8.04673 2.95344 8.04673H0.666748V11.8614H2.95344V23.2H7.648V11.8614H10.7988C10.7988 11.8614 11.0938 10.0331 11.2361 8.03092C10.8251 8.03092 7.6638 8.03092 7.6638 8.03092C7.6638 8.03092 7.6638 5.81273 7.6638 5.42283C7.6638 5.03294 8.17488 4.50605 8.68069 4.50605C9.18651 4.50605 10.2508 4.50605 11.2414 4.50605C11.2414 3.98443 11.2414 2.19302 11.2414 0.533325C9.92415 0.533325 8.42252 0.533325 7.76391 0.533325C2.83752 0.538594 2.95344 4.35852 2.95344 4.92756Z" fill="#F6F6F5"/>
</svg>
