<svg width="24" height="20" viewBox="0 0 24 20" fill="none" xmlns="http://www.w3.org/2000/svg">
<path d="M0.831403 17.1047C3.32182 17.3287 5.56588 16.7016 7.60838 15.1697C5.47182 14.9816 4.04297 13.9156 3.24567 11.9179C3.94442 12.003 4.59838 12.0254 5.29265 11.8372C2.99036 11.1206 1.76307 9.61557 1.59734 7.18786C2.28713 7.51036 2.93661 7.74327 3.70255 7.75223C2.3364 6.7265 1.63765 5.39619 1.66453 3.72098C1.67797 2.95056 1.88401 2.22494 2.29161 1.53963C4.82234 4.50036 7.99807 6.13973 11.9084 6.41296C11.886 6.24275 11.8726 6.10838 11.8546 5.96952C11.5321 3.48806 13.1446 1.23057 15.6082 0.760253C17.1535 0.464628 18.5196 0.872232 19.6753 1.93827C19.8544 2.09952 20.0067 2.13536 20.2307 2.07713C21.131 1.84869 21.9865 1.51723 22.8152 1.06932C22.4971 2.11744 21.8432 2.90577 20.9563 3.56869C21.1579 3.53286 21.3639 3.50598 21.5655 3.46567C21.776 3.42088 21.9865 3.37161 22.197 3.31338C22.3986 3.25963 22.5957 3.19692 22.7928 3.12973C22.9943 3.06254 23.1959 2.9864 23.4333 2.94609C23.3168 3.10734 23.2048 3.27754 23.0794 3.43431C22.5598 4.09275 21.9596 4.67056 21.3012 5.18567C21.234 5.23942 21.1758 5.35588 21.1803 5.4365C21.2161 7.02661 20.9921 8.5764 20.477 10.0814C19.4647 13.0466 17.6999 15.4474 15.0528 17.163C13.7448 18.0095 12.316 18.5649 10.7886 18.8874C9.27463 19.2055 7.75172 19.2637 6.22432 19.0845C4.69245 18.9054 3.23672 18.453 1.86609 17.7453C1.50328 17.5616 1.1539 17.3556 0.800049 17.1585C0.813486 17.1406 0.822445 17.1226 0.831403 17.1047Z" fill="#D8BFA9"/>
</svg>
