<svg width="18" height="24" viewBox="0 0 18 24" fill="none" xmlns="http://www.w3.org/2000/svg">
<path d="M9.45547 0.533401C3.30254 0.533401 0.199951 4.96833 0.199951 8.66656C0.199951 10.9058 1.04332 12.8981 2.85204 13.6406C3.14855 13.7624 3.41435 13.6443 3.50032 13.3146C3.56014 13.0862 3.70176 12.5097 3.76492 12.2698C3.85161 11.9433 3.81799 11.8287 3.57868 11.5441C3.05715 10.9256 2.72382 10.125 2.72382 8.99094C2.72382 5.70065 5.17255 2.75528 9.10013 2.75528C12.5779 2.75528 14.4886 4.89159 14.4886 7.74465C14.4886 11.4986 12.836 14.667 10.3828 14.667C9.02789 14.667 8.01379 13.5405 8.3388 12.1591C8.72816 10.5097 9.48222 8.72973 9.48222 7.53912C9.48222 6.47347 8.9132 5.58458 7.7355 5.58458C6.35051 5.58458 5.23789 7.02501 5.23789 8.95452C5.23789 10.1834 5.65101 11.0147 5.65101 11.0147C5.65101 11.0147 4.23374 17.0519 3.98523 18.1092C3.49035 20.2148 3.91075 22.7961 3.94649 23.0568C3.96729 23.2113 4.16479 23.248 4.2541 23.1312C4.38188 22.9635 6.03152 20.9163 6.59229 18.8707C6.75098 18.2915 7.50336 15.292 7.50336 15.292C7.95325 16.1548 9.26829 16.9148 10.6667 16.9148C14.83 16.9148 17.6545 13.0992 17.6545 7.99195C17.6544 4.12993 14.4007 0.533325 9.45547 0.533325V0.533401Z" fill="#D8BFA9"/>
</svg>
