<svg width="24" height="16" viewBox="0 0 24 16" fill="none" xmlns="http://www.w3.org/2000/svg">
<path d="M12.2776 15.929C9.73059 15.8487 7.30849 15.7863 4.88638 15.6926C4.36449 15.6703 3.83368 15.59 3.32518 15.4696C2.37061 15.2466 1.71044 14.6711 1.37143 13.73C1.09934 12.9717 1.00121 12.191 0.929836 11.3971C0.773715 9.53253 0.773715 7.668 0.849545 5.80347C0.894151 4.75077 0.920915 3.68915 1.20193 2.66767C1.37143 2.05657 1.57662 1.45885 2.07175 1.01725C2.59364 0.548891 3.20474 0.267874 3.90059 0.236649C5.80973 0.142977 7.7144 0.0270016 9.62354 0.00915917C12.1928 -0.0176044 14.7666 0.0180805 17.3359 0.0671471C18.4466 0.08945 19.5662 0.147438 20.668 0.290177C21.6761 0.423995 22.4299 0.98603 22.8314 1.96736C23.1391 2.7212 23.2551 3.51073 23.322 4.31363C23.496 6.32536 23.5004 8.33709 23.4023 10.3488C23.3532 11.3703 23.3042 12.3962 23.0142 13.3909C22.6842 14.5329 21.9838 15.2867 20.8152 15.5454C20.3602 15.6435 19.8874 15.6792 19.4235 15.6971C16.9969 15.7818 14.5748 15.8577 12.2776 15.929ZM9.81088 10.8573C11.8449 9.80463 13.8566 8.76085 15.9085 7.69477C13.8611 6.62422 11.8494 5.57598 9.81088 4.5099C9.81088 6.6376 9.81088 8.72962 9.81088 10.8573Z" fill="#D8BFA9"/>
</svg>
