<svg width="357" height="211" viewBox="0 0 357 211" fill="none" xmlns="http://www.w3.org/2000/svg">
<path d="M194.646 147.465C105.277 182.035 25.4808 191.06 16.4151 167.623C7.34927 144.187 72.4473 97.1632 161.816 62.5937C251.184 28.0242 330.98 18.9992 340.046 42.4358C347.471 61.6296 305.154 96.6429 240.5 127.68" stroke="#D8BFA9" stroke-width="0.5" stroke-dasharray="9 9"/>
<path d="M339.5 46C339.5 46 339.795 49.3933 341.201 50.7994C342.607 52.2055 346 52.5 346 52.5C346 52.5 342.607 52.7945 341.201 54.2006C339.795 55.6067 339.5 59 339.5 59C339.5 59 339.205 55.6067 337.799 54.2006C336.393 52.7945 333 52.5 333 52.5C333 52.5 336.393 52.2055 337.799 50.7994C339.205 49.3933 339.5 46 339.5 46Z" fill="#D8BFA9"/>
<path d="M329 12C329 12 329.77 20.8749 333.448 24.5523C337.125 28.2297 346 29 346 29C346 29 337.125 29.7703 333.448 33.4477C329.77 37.1251 329 46 329 46C329 46 328.23 37.1251 324.552 33.4477C320.875 29.7703 312 29 312 29C312 29 320.875 28.2297 324.552 24.5523C328.23 20.8749 329 12 329 12Z" fill="#D8BFA9"/>
</svg>
