<svg width="20" height="20" viewBox="0 0 20 20" fill="none" xmlns="http://www.w3.org/2000/svg">
<path d="M19.4755 14.678L16.6786 11.8869C15.6797 10.8901 13.9816 11.2889 13.582 12.5847C13.2823 13.4818 12.2834 13.9802 11.3844 13.7808C9.38661 13.2824 6.68957 10.6907 6.19012 8.59745C5.89045 7.70029 6.48979 6.70348 7.3888 6.40448C8.68738 6.00576 9.08694 4.31119 8.08804 3.31438L5.2911 0.523323C4.49198 -0.174441 3.2933 -0.174441 2.59406 0.523323L0.696144 2.41725C-1.20177 4.41087 0.895924 9.69394 5.59078 14.3789C10.2856 19.0639 15.5798 21.2569 17.5776 19.2633L19.4755 17.3693C20.1748 16.5719 20.1748 15.3757 19.4755 14.678Z" fill="#B8926B"/>
</svg>
